<svg xmlns="http://www.w3.org/2000/svg" viewBox="0 0 1200 900" role="img" aria-labelledby="title desc">
<title id="title">Concept preview of Copilote AO</title><desc id="desc">Concept dashboard for tender monitoring, with sources, human decisions and evidence.</desc>
<defs><linearGradient id="bg" x2="1" y2="1"><stop stop-color="#071822"/><stop offset="1" stop-color="#173a3b"/></linearGradient><linearGradient id="glow" x2="1"><stop stop-color="#d6f0df"/><stop offset="1" stop-color="#b6dfcd"/></linearGradient><filter id="shadow"><feDropShadow dx="0" dy="24" stdDeviation="28" flood-color="#000" flood-opacity=".26"/></filter></defs>
<rect width="1200" height="900" fill="url(#bg)"/><circle cx="1070" cy="90" r="240" fill="#61a488" opacity=".12"/><circle cx="80" cy="850" r="320" fill="#61a488" opacity=".08"/>
<text x="90" y="94" fill="#bce4cf" font-family="Arial,sans-serif" font-size="20" letter-spacing="5">COPILOTE AO / CONCEPT PREVIEW</text>
<g filter="url(#shadow)"><rect x="86" y="134" width="1028" height="686" rx="26" fill="#f5f6f0"/><rect x="86" y="134" width="1028" height="74" rx="26" fill="#fff"/><path d="M86 182h1028v26H86z" fill="#fff"/>
<rect x="86" y="208" width="224" height="612" fill="#102932"/><circle cx="126" cy="170" r="17" fill="#20785d"/><path d="M118 170l6 6 12-14" fill="none" stroke="#fff" stroke-width="4"/><text x="155" y="177" fill="#15322e" font-family="Arial,sans-serif" font-weight="700" font-size="25">Copilote AO</text><text x="914" y="177" fill="#4e6c67" font-family="Arial,sans-serif" font-size="15">WORKSPACE</text>
<text x="120" y="254" fill="#a9c6bf" font-family="Arial,sans-serif" font-size="14" letter-spacing="2">NAVIGATION</text><rect x="104" y="278" width="188" height="46" rx="12" fill="#2d6258"/><text x="128" y="307" fill="#fff" font-family="Arial,sans-serif" font-size="19">◉  Tenders</text><text x="128" y="368" fill="#b7d0c9" font-family="Arial,sans-serif" font-size="19">▤  Monitoring</text><text x="128" y="426" fill="#b7d0c9" font-family="Arial,sans-serif" font-size="19">◇  Tender analysis</text><text x="128" y="484" fill="#b7d0c9" font-family="Arial,sans-serif" font-size="19">□  My company</text><path d="M112 704h170" stroke="#42615f"/><text x="121" y="740" fill="#a9c6bf" font-family="Arial,sans-serif" font-size="14">HUMAN DECISION</text><text x="121" y="770" fill="#e0eee5" font-family="Arial,sans-serif" font-size="17">No automatic submission</text>
<text x="348" y="266" fill="#172f31" font-family="Arial,sans-serif" font-size="35" font-weight="700">Tenders to qualify</text><text x="348" y="298" fill="#607677" font-family="Arial,sans-serif" font-size="17">Source-backed monitoring · BOAMP / TED / DECP</text><rect x="920" y="242" width="160" height="42" rx="10" fill="#173d34"/><text x="945" y="270" fill="#fff" font-family="Arial,sans-serif" font-size="16">+ Filter</text>
<rect x="348" y="330" width="732" height="130" rx="16" fill="#fff" stroke="#d9e4dc"/><rect x="370" y="352" width="86" height="26" rx="13" fill="#dceee5"/><text x="390" y="370" fill="#247355" font-family="Arial,sans-serif" font-size="13" font-weight="700">BOAMP</text><text x="470" y="370" fill="#778b88" font-family="Arial,sans-serif" font-size="14">SAMPLE NOTICE · FICTIONAL DATA</text><text x="370" y="411" fill="#193532" font-family="Arial,sans-serif" font-size="22" font-weight="700">Public building energy retrofit</text><text x="370" y="439" fill="#657b75" font-family="Arial,sans-serif" font-size="15">Paris region   ·   Works   ·   Review needed</text>
<rect x="348" y="476" width="732" height="268" rx="16" fill="#fff" stroke="#d9e4dc"/><text x="372" y="515" fill="#193532" font-family="Arial,sans-serif" font-size="23" font-weight="700">Tender qualification</text><line x1="372" y1="535" x2="1056" y2="535" stroke="#e1e9e4"/><rect x="372" y="560" width="208" height="126" rx="12" fill="#edf4ec"/><text x="390" y="591" fill="#658176" font-family="Arial,sans-serif" font-size="14">SOURCE</text><text x="390" y="627" fill="#1b4c39" font-family="Arial,sans-serif" font-size="21" font-weight="700">Cited notice</text><text x="390" y="654" fill="#5b786a" font-family="Arial,sans-serif" font-size="14">Verifiable provenance</text><rect x="598" y="560" width="208" height="126" rx="12" fill="#fff5e7"/><text x="616" y="591" fill="#9e7850" font-family="Arial,sans-serif" font-size="14">UNKNOWNS</text><text x="616" y="627" fill="#845d32" font-family="Arial,sans-serif" font-size="21" font-weight="700">To verify</text><text x="616" y="654" fill="#9e7850" font-family="Arial,sans-serif" font-size="14">No assumptions</text><rect x="824" y="560" width="232" height="126" rx="12" fill="#e8eeef"/><text x="842" y="591" fill="#60767b" font-family="Arial,sans-serif" font-size="14">DECISION</text><text x="842" y="627" fill="#264750" font-family="Arial,sans-serif" font-size="21" font-weight="700">Go / no-go</text><text x="842" y="654" fill="#60767b" font-family="Arial,sans-serif" font-size="14">Team approval</text><text x="374" y="719" fill="#526e67" font-family="Arial,sans-serif" font-size="16">Each conclusion links to a source or remains marked as unknown.</text></g>
</svg>
